<?xml version="1.0" encoding="utf-8"?>
<!-- Generator: Adobe Illustrator 15.0.0, SVG Export Plug-In . SVG Version: 6.00 Build 0)  -->
<!DOCTYPE svg PUBLIC "-//W3C//DTD SVG 1.1//EN" "http://www.w3.org/Graphics/SVG/1.1/DTD/svg11.dtd">
<svg version="1.1" id="Layer_1" xmlns="http://www.w3.org/2000/svg" xmlns:xlink="http://www.w3.org/1999/xlink" x="0px" y="0px"
	 width="50px" height="50px" viewBox="0 0 50 50" enable-background="new 0 0 50 50" xml:space="preserve">
<g>
	<path fill="#FFFFFF" d="M25,13.225c8.063,0,14.622,6.559,14.622,14.622S33.063,42.469,25,42.469S10.378,35.91,10.378,27.847
		S16.937,13.225,25,13.225 M25,8.193c-10.854,0-19.653,8.8-19.653,19.653S14.146,47.5,25,47.5c10.854,0,19.653-8.8,19.653-19.653
		S35.854,8.193,25,8.193L25,8.193z"/>
	<path fill="#FFFFFF" d="M16.09,8.236c0.99-0.451,2-0.792,3.015-1.082L17.934,2.5l-7.635,3.469l2.759,3.98
		C14.012,9.313,15.012,8.725,16.09,8.236z"/>
	<path fill="#FFFFFF" d="M24.999,29.733c-0.237,0-0.479-0.044-0.713-0.14c-0.965-0.394-1.428-1.496-1.033-2.46L27.42,16.94
		c0.395-0.964,1.496-1.429,2.459-1.033c0.966,0.395,1.428,1.496,1.034,2.46l-4.166,10.193
		C26.447,29.291,25.743,29.733,24.999,29.733z"/>
</g>
</svg>
